<?xml version="1.0" encoding="UTF-8" standalone="no"?>
<svg
   version="1.1"
   viewBox="-5.0 -10.0 110.0 135.0"
   id="svg3"
   sodipodi:docname="power.svg"
   inkscape:version="1.3.2 (091e20ef0f, 2023-11-25, custom)"
   xmlns:inkscape="http://www.inkscape.org/namespaces/inkscape"
   xmlns:sodipodi="http://sodipodi.sourceforge.net/DTD/sodipodi-0.dtd"
   xmlns="http://www.w3.org/2000/svg"
   xmlns:svg="http://www.w3.org/2000/svg">
  <defs
     id="defs3" />
  <sodipodi:namedview
     id="namedview3"
     pagecolor="#505050"
     bordercolor="#eeeeee"
     borderopacity="1"
     inkscape:showpageshadow="0"
     inkscape:pageopacity="0"
     inkscape:pagecheckerboard="0"
     inkscape:deskcolor="#505050"
     inkscape:zoom="1.7481481"
     inkscape:cx="90.667373"
     inkscape:cy="15.158898"
     inkscape:window-width="1251"
     inkscape:window-height="1512"
     inkscape:window-x="0"
     inkscape:window-y="0"
     inkscape:window-maximized="1"
     inkscape:current-layer="g3" />
  <g
     id="g3"
     transform="matrix(1.0005084,0,0,1.0124257,-0.38189554,-1.1328179)">
    <g
       id="g4">
      <path
         d="M 75.626749,0.73686356 C 66.837612,-3.2477484 60.041384,-0.51820257 72.00489,6.1170979 c 8.342533,7.8379951 8.600338,10.0206061 12.765341,15.3917971 2.027153,4.462982 3.30165,9.260203 3.784051,14.145569 l 0.215907,3.675233 -0.159226,3.68538 c 4.2e-4,0.619712 -0.07783,1.223137 -0.170158,1.834291 l -0.258498,1.826094 c -0.101154,0.610289 -0.149324,1.225471 -0.28499,1.823637 l -0.437504,1.786958 c -1.171616,4.754454 -3.06899,9.360653 -5.775202,13.46568 -2.705346,4.095679 -6.076515,7.73461 -9.949827,10.734482 -3.880861,2.985376 -8.230691,5.361328 -12.874346,6.874875 -4.656099,1.498945 -9.544342,2.186043 -14.412328,2.075742 l -1.827975,-0.07977 c -0.612808,-0.02093 -1.217601,-0.03213 -1.82178,-0.146559 l -3.621259,-0.533529 -3.543598,-0.890035 c -0.594479,-0.1225 -1.167055,-0.33728 -1.739575,-0.552041 L 30.17501,80.60394 C 25.629212,78.848529 21.391379,76.318041 17.684924,73.145168 10.231872,66.809263 5.2191929,57.789566 3.4460302,48.235598 2.5080575,43.460629 2.6238989,38.513968 3.3782875,33.742764 4.1724116,28.975822 5.6554687,24.322106 8.0248187,20.150537 12.702537,11.792317 9.0331215,14.167434 17.558675,7.8248942 23.735103,4.625949 26.376699,-10.976198 12.160135,1.8950339 8.0076497,5.6005756 4.4280017,9.9969107 1.7640631,14.895251 -0.93449386,19.781988 -2.823604,25.116385 -3.8439981,30.593906 -4.843612,36.087265 -4.8319109,41.723759 -4.0410695,47.221016 -2.5014515,58.28451 3.0901582,68.551371 11.005938,76.192172 18.947834,83.884597 29.525986,88.610908 40.420742,89.77427 51.823105,90.89941 63.650808,88.054082 73.193896,81.561618 82.732623,75.113697 89.961303,65.2854 93.285999,54.18001 96.516888,43.074083 95.937138,30.883302 91.453131,20.201898 86.094149,12.320243 83.958466,7.5539655 75.626749,0.73686356 Z"
         id="path1"
         style="stroke-width:1.14007"
         sodipodi:nodetypes="ccccccccccccccccccccccccccccccccccc" />
      <path
         d="m 45.042905,47.967938 c 5.099041,-0.057 4.534309,-6.652709 4.558675,-8.277288 0.09712,-7.367059 -0.607021,-14.733928 -0.607021,-22.107907 0,-7.367059 0.02428,-15.4107841 -0.02428,-23.1129011 0,-1.275321 1.218904,-3.156317 -3.3556,-3.2274487 -4.94849,-0.092602 -3.332537,8.45700911 -3.395691,9.66116835 C 41.500279,15.972358 41.854399,23.846506 41.481181,37.699348 c -0.398205,1.752693 0.401531,10.505448 3.377408,10.190674 z"
         id="path1-7"
         style="stroke-width:1.50582"
         sodipodi:nodetypes="ccscccccc" />
    </g>
  </g>
</svg>
