<?xml version="1.0" encoding="UTF-8" standalone="no"?>
<svg
   version="1.1"
   viewBox="-5.0 -10.0 110.0 135.0"
   id="svg3"
   sodipodi:docname="reboot.svg"
   inkscape:version="1.3.2 (091e20ef0f, 2023-11-25, custom)"
   xmlns:inkscape="http://www.inkscape.org/namespaces/inkscape"
   xmlns:sodipodi="http://sodipodi.sourceforge.net/DTD/sodipodi-0.dtd"
   xmlns="http://www.w3.org/2000/svg"
   xmlns:svg="http://www.w3.org/2000/svg">
  <defs
     id="defs3" />
  <sodipodi:namedview
     id="namedview3"
     pagecolor="#505050"
     bordercolor="#eeeeee"
     borderopacity="1"
     inkscape:showpageshadow="0"
     inkscape:pageopacity="0"
     inkscape:pagecheckerboard="0"
     inkscape:deskcolor="#505050"
     inkscape:zoom="2.8284271"
     inkscape:cx="-165.63976"
     inkscape:cy="204.17708"
     inkscape:window-width="2516"
     inkscape:window-height="1512"
     inkscape:window-x="0"
     inkscape:window-y="0"
     inkscape:window-maximized="1"
     inkscape:current-layer="g2" />
  <g
     id="g2"
     transform="matrix(1.2083092,0,0,1.0250586,-15.417746,-11.250676)">
    <path
       d="m 91.16,39.289 c -0.48047,-4.1602 -2.3008,-8.1719 -5.1797,-11.23 -2.8516,-3.0781 -6.7109,-5.2695 -10.91,-6.0586 -1.0508,-0.23047 -2.1094,-0.30078 -3.1797,-0.37891 L 69.1015,21.5004 63.5312,21.21134 c -3.7188,-0.21875 -7.4297,-0.5 -11.141,-0.83984 -1.0703,-0.10156 -2.2812,-0.19922 -3.4414,-0.14844 1.2617,-1.1797 2.5312,-2.3516 3.8203,-3.5 3.0898,-2.7305 6.3008,-5.3398 9.6914,-7.7695 1.5781,-1.1289 3.8203,-2.8281 0.23828,-6.3203 -2.9414,-2.8711 -4.4688,-0.67969 -5.7383,0.55859 -2.8789,2.8203 -5.6406,5.75 -8.3906,8.6914 l -4.1406,4.3984 -0.55078,0.57812 c -0.26172,0.28125 -0.51172,0.57031 -0.73828,0.87109 -0.46094,0.60938 -0.85938,1.2695 -1.1914,1.9609 -0.64844,1.3906 -0.98828,2.9219 -1.0117,4.4297 -0.03125,1.5781 0.32031,3.1797 1,4.6289 0.33984,0.71875 0.76953,1.3984 1.2617,2.0312 0.25,0.30859 0.51172,0.60938 0.78906,0.89062 l 0.57031,0.57031 4.4609,4.4688 8.9492,8.9219 c 0.98047,0.98047 1.7383,3.1289 4.4102,0.58984 2.8789,-2.7383 0.57031,-3.4805 -0.32812,-4.4414 -2.8086,-3.0117 -5.7109,-5.9414 -8.6289,-8.8398 l -4.3906,-4.3516 -0.30078,-0.30078 c 1.1406,0.07031 2.3086,0.03125 3.3398,0.03125 3.6406,0.01953 7.2695,0 10.91,-0.03906 l 5.4609,-0.07813 2.7305,-0.05078 h 0.67969 0.53906 c 0.35156,0.01953 0.71094,0 1.0586,0.05078 2.8008,0.28125 5.5703,1.4219 7.6914,3.3711 2.1602,1.8984 3.6484,4.5508 4.1992,7.3711 l 0.17188,1.1211 0.05859,1.1289 c 0.03125,0.32813 0.01953,0.87891 0.01953,1.3398 v 1.4297 5.6992 11.41 1.4297 0.69922 c 0,0 -0.03906,0.57031 -0.03906,0.57031 0,0.76172 -0.14844,1.5 -0.26953,2.2383 -0.30859,1.4688 -0.89062,2.8789 -1.6602,4.1797 -1.5312,2.6094 -3.9883,4.6484 -6.7891,5.75 -0.46094,0.17969 -1,0.32031 -1.5508,0.39844 -0.53906,0.12891 -1.0781,0.19141 -1.5586,0.37109 -0.94922,0.35156 -1.7305,1 -1.8203,2.8711 -0.10938,1.9805 0.89844,2.6992 2.3398,2.7695 1.4219,0.03906 3.1094,-0.58984 4.3398,-1.0781 3.9492,-1.3516 7.3789,-4.1016 9.6797,-7.6016 1.1719,-1.7383 2,-3.7109 2.5117,-5.7383 0.28906,-1.0117 0.41016,-2.0586 0.53125,-3.1016 l 0.07812,-1.5703 v -1.4102 l -0.03125,-11.16 v -5.5781 c -0.03125,-1.8711 0.05859,-3.6406 -0.14062,-5.8203 z"
       id="path1" />
    <path
       d="m 8.6719,36.738 v 1.4102 l 0.03125,11.16 v 5.5781 c 0.03125,1.8711 -0.058594,3.6406 0.14062,5.8203 0.48047,4.1602 2.3008,8.1719 5.1797,11.23 2.8516,3.0781 6.7109,5.2695 10.91,6.0586 1.0508,0.23047 2.1094,0.30078 3.1797,0.37891 l 2.7891,0.12109 5.5703,0.28906 c 3.7188,0.21875 7.4297,0.5 11.141,0.83984 1.0703,0.10156 2.2812,0.19922 3.4414,0.14844 -1.2617,1.1797 -2.5312,2.3516 -3.8203,3.5 -3.0898,2.7305 -6.3008,5.3398 -9.6914,7.7695 -1.5781,1.1289 -3.8203,2.8281 -0.23828,6.3203 2.9414,2.8711 4.4688,0.67969 5.7383,-0.55859 2.8789,-2.8203 5.6406,-5.75 8.3906,-8.6914 l 4.1406,-4.3984 0.55078,-0.57812 c 0.26172,-0.28125 0.51172,-0.57031 0.73828,-0.87109 0.46094,-0.60938 0.85938,-1.2695 1.1914,-1.9609 0.64844,-1.3906 0.98828,-2.9219 1.0117,-4.4297 0.03125,-1.5781 -0.32031,-3.1797 -1,-4.6289 -0.33984,-0.71875 -0.76953,-1.3984 -1.2617,-2.0312 -0.25,-0.30859 -0.51172,-0.60938 -0.78906,-0.89062 l -0.57031,-0.57031 -4.4609,-4.4688 -8.9492,-8.9219 c -0.98047,-0.98047 -1.7383,-3.1289 -4.4102,-0.58984 -2.8789,2.7383 -0.57031,3.4805 0.32812,4.4414 2.8086,3.0117 5.7109,5.9414 8.6289,8.8398 l 4.3906,4.3516 0.30078,0.30078 c -1.1406,-0.07031 -2.3086,-0.03125 -3.3398,-0.03125 -3.6406,-0.01953 -7.2695,0 -10.91,0.03906 l -5.4609,0.07813 -2.7305,0.05078 h -0.67969 -0.53906 c -0.35156,-0.01953 -0.71094,0 -1.0586,-0.05078 -2.8008,-0.28125 -5.5703,-1.4219 -7.6914,-3.3711 -2.1602,-1.8984 -3.6484,-4.5508 -4.1992,-7.3711 l -0.17187,-1.1211 -0.05859,-1.1289 c -0.03125,-0.32812 -0.01953,-0.87891 -0.01953,-1.3398 v -1.4297 -5.6992 -11.41 -1.4297 -0.69922 c 0,0 0.03906,-0.57031 0.03906,-0.57031 0,-0.76172 0.14844,-1.5 0.26953,-2.2383 0.30859,-1.4688 0.89062,-2.8789 1.6602,-4.1797 1.5312,-2.6094 3.9883,-4.6484 6.7891,-5.75 0.46094,-0.17969 1,-0.32031 1.5508,-0.39844 0.53906,-0.12891 1.0781,-0.19141 1.5586,-0.37109 0.94922,-0.35156 1.7305,-1 1.8203,-2.8711 0.10938,-1.9805 -0.89844,-2.6992 -2.3398,-2.7695 -1.4219,-0.03906 -3.1094,0.58984 -4.3398,1.0781 -3.9492,1.3516 -7.3789,4.1016 -9.6797,7.6016 -1.1719,1.7383 -2,3.6992 -2.5117,5.7383 -0.28906,1.0117 -0.41016,2.0586 -0.53125,3.1016 l -0.078125,1.5703 z"
       id="path2" />
  </g>
</svg>
