<?xml version="1.0" encoding="UTF-8" standalone="no"?>
<svg
   version="1.1"
   viewBox="-5.0 -10.0 110.0 135.0"
   id="svg3"
   sodipodi:docname="settings.svg"
   inkscape:version="1.3.2 (091e20ef0f, 2023-11-25, custom)"
   xmlns:inkscape="http://www.inkscape.org/namespaces/inkscape"
   xmlns:sodipodi="http://sodipodi.sourceforge.net/DTD/sodipodi-0.dtd"
   xmlns="http://www.w3.org/2000/svg"
   xmlns:svg="http://www.w3.org/2000/svg">
  <defs
     id="defs3" />
  <sodipodi:namedview
     id="namedview3"
     pagecolor="#505050"
     bordercolor="#eeeeee"
     borderopacity="1"
     inkscape:showpageshadow="0"
     inkscape:pageopacity="0"
     inkscape:pagecheckerboard="0"
     inkscape:deskcolor="#505050"
     showgrid="false"
     inkscape:zoom="9.1333333"
     inkscape:cx="55.018248"
     inkscape:cy="58.412409"
     inkscape:window-width="2516"
     inkscape:window-height="1512"
     inkscape:window-x="0"
     inkscape:window-y="0"
     inkscape:window-maximized="1"
     inkscape:current-layer="svg3" />
  <g
     id="g2"
     transform="matrix(1.08315,0,0,1.0189034,-9.133041,-10.903746)">
    <path
       d="m 53.129,64.328 c -3.0312,0.57812 -6.25,0.12891 -8.9609,-1.3203 -2.7109,-1.4688 -4.8906,-3.8906 -6.0703,-6.7305 -0.16016,-0.48047 -0.35156,-1.0195 -0.42188,-1.5781 -0.05078,-0.28125 -0.12109,-0.55078 -0.19141,-0.82031 -0.03906,-0.26953 -0.10938,-0.53125 -0.19922,-0.78125 -0.21094,-0.48828 -0.42188,-0.92188 -0.87109,-1.2617 -0.44141,-0.32813 -1.0898,-0.57031 -2.0117,-0.60938 -1.9688,-0.12109 -2.7109,0.92969 -2.7617,2.3984 0,0.73047 0.10938,1.5391 0.37109,2.3008 0.21094,0.78125 0.53906,1.5 0.76953,2.1484 1.4805,4.0117 4.3711,7.5312 8.1094,9.6797 3.7109,2.1914 8.1992,3.0586 12.449,2.3711 4.2812,-0.60938 8.2891,-2.8008 11.18,-5.9688 1.4492,-1.5781 2.6602,-3.3984 3.5,-5.3906 0.83984,-1.9805 1.3398,-4.1016 1.5,-6.25 0.35938,-4.2891 -0.87891,-8.6797 -3.2812,-12.262 -2.4102,-3.6016 -6.0703,-6.3281 -10.238,-7.7109 -2.0781,-0.71094 -4.3008,-1 -6.5117,-0.98047 -2.2109,0.03125 -4.4609,0.37891 -6.5781,1.1484 -4.2383,1.5195 -8.0586,4.4414 -10.641,8.3789 -1.2188,1.8086 -2.3008,4.4102 -2.1602,6.5781 0.03906,0.53906 0.12891,1.0391 0.28125,1.4883 0.19141,0.44922 0.44141,0.83984 0.75,1.1484 0.62891,0.62891 1.5312,0.94141 2.7812,0.91016 1.0312,-0.03125 1.7891,-0.32031 2.3398,-0.73047 0.28125,-0.21094 0.5,-0.44141 0.69141,-0.69922 0.21875,-0.26172 0.39844,-0.53906 0.53906,-0.83984 0.60937,-1.1719 0.96875,-2.6484 1.5898,-3.7617 1.3711,-2.4688 3.4883,-4.5703 6.0898,-5.75 1.2891,-0.58984 2.6719,-0.98047 4.1016,-1.1602 1.4297,-0.17188 2.8906,-0.05859 4.2891,0.23047 2.8281,0.57031 5.4219,2.2188 7.3008,4.4609 1.8906,2.25 2.9219,5.1719 2.9609,8.1211 0,3.0898 -1.0195,6.1484 -2.9805,8.5391 -1.9492,2.3906 -4.7305,4.0703 -7.7383,4.6914 z"
       id="path1" />
    <path
       d="m 95.41,30.629 -0.21094,-0.41016 -0.17969,-0.32812 -0.23828,-0.42188 c -0.16016,-0.28125 -0.32031,-0.55078 -0.48047,-0.82812 -0.32031,-0.53906 -0.62109,-1.0781 -0.92188,-1.6016 l -2.0312,-3.5312 -1.0195,-1.7695 -0.12891,-0.21875 -0.19141,-0.30859 c -0.17187,-0.26953 -0.33984,-0.53125 -0.53906,-0.78125 -0.37891,-0.51172 -0.83984,-0.96094 -1.3203,-1.3711 -1.9492,-1.6289 -4.6094,-2.3516 -7.1289,-1.8906 -0.62891,0.10938 -1.2383,0.30078 -1.8203,0.53125 l -0.78125,0.30859 c -0.44141,0.16016 -0.89062,0.28906 -1.3516,0.37891 -1.8398,0.37109 -3.8281,0.14844 -5.6484,-0.60938 -0.46094,-0.19141 -0.89844,-0.41016 -1.3281,-0.66016 l -1.8594,-1.0703 c -0.87109,-0.48828 -1.6797,-1.0781 -2.3789,-1.7695 -1.3984,-1.3789 -2.3711,-3.1211 -2.75,-4.9883 L 62.98042,8.55096 62.921826,8.17987 62.843701,7.71893 c -0.07031,-0.30859 -0.14844,-0.60938 -0.25,-0.91016 -0.39844,-1.1914 -1.0586,-2.2891 -1.9219,-3.2109 -0.85938,-0.91016 -1.9219,-1.6211 -3.0781,-2.0898 -0.57812,-0.23047 -1.1914,-0.39844 -1.8086,-0.5 -0.30859,-0.039062 -0.62109,-0.089843 -0.92969,-0.10156 l -0.46875,-0.019531 h -0.26172 l -8.1484,0.050781 h -1.0195 -0.25 -0.42188 c -0.30859,0.019531 -0.62109,0.058594 -0.92188,0.10938 -1.2305,0.19141 -2.4219,0.66016 -3.4414,1.3516 -1.0312,0.69141 -1.9102,1.6016 -2.5391,2.6602 -0.32812,0.53125 -0.57812,1.1016 -0.78906,1.6797 -0.10156,0.28906 -0.17188,0.58984 -0.25,0.89062 l -0.07813,0.44922 -0.05859,0.39062 c -0.25,1.9688 -1.0508,3.8789 -2.3516,5.4688 -0.64062,0.78906 -1.3906,1.5195 -2.2305,2.1289 -0.44141,0.30859 -0.80859,0.55859 -1.3594,0.87109 -0.46094,0.26172 -0.92188,0.5 -1.4102,0.69141 -1.9219,0.82031 -4.0312,1.0898 -6.0391,0.82031 -0.5,-0.07813 -1,-0.17969 -1.4805,-0.32031 -0.23828,-0.07813 -0.48047,-0.14062 -0.71875,-0.23828 l -0.35938,-0.12891 c -0.25,-0.08984 -0.55078,-0.21094 -0.83984,-0.30078 -2.3281,-0.71094 -4.9414,-0.32031 -6.9609,1.0117 -1.0195,0.66016 -1.8789,1.5586 -2.5117,2.5703 -0.19141,0.30078 -0.23047,0.39062 -0.32812,0.55078 l -0.25,0.44141 -0.51172,0.87891 -2.0195,3.5391 -2.0781,3.6484 c -1.1602,2.1484 -1.25,4.8398 -0.26172,7.0586 0.48828,1.1211 1.2305,2.1289 2.1602,2.9102 l 0.80859,0.66016 c 0.19922,0.16016 0.37891,0.33984 0.57031,0.51172 0.73047,0.71875 1.3711,1.5312 1.8906,2.4297 1.0391,1.7891 1.5508,3.8398 1.5195,5.9805 v 1.1406 c -0.01172,0.26953 0,0.55078 -0.03125,0.82031 -0.03125,0.53906 -0.10156,1.0781 -0.21094,1.6094 -0.21094,1.0703 -0.58984,2.0898 -1.0898,3.0391 -0.5,0.96094 -1.1484,1.8281 -1.8984,2.6016 -0.37891,0.39844 -0.76953,0.71875 -1.2188,1.0781 -1,0.78125 -1.8398,1.7891 -2.3789,2.9414 -1.1094,2.2891 -1.0312,5.1211 0.21094,7.3516 l 2.1719,3.7617 2.1289,3.6914 0.53125,0.92188 0.12891,0.23047 0.19141,0.30859 c 0.16016,0.26953 0.33984,0.53125 0.53906,0.76953 0.76953,0.98828 1.7812,1.8008 2.9102,2.3398 1.1289,0.55078 2.3789,0.82031 3.6289,0.82031 0.62891,0 1.2617,-0.07813 1.8711,-0.23047 0.30078,-0.07813 0.60937,-0.16016 0.89844,-0.26953 l 0.57812,-0.21875 c 0.98828,-0.37891 2.0391,-0.64844 3.1094,-0.71875 2.1406,-0.17188 4.3594,0.30078 6.3398,1.3008 1.0703,0.55078 1.9609,1.1406 2.7891,1.8711 0.82812,0.71875 1.5508,1.5508 2.1289,2.4609 0.58984,0.91016 1.0391,1.8906 1.3281,2.9219 0.16016,0.51172 0.25,1.0391 0.32813,1.5586 l 0.14062,0.82031 c 0.07813,0.30078 0.14844,0.60938 0.26172,0.89844 0.21094,0.58984 0.48047,1.1602 0.80859,1.6914 1.3203,2.1289 3.6484,3.5898 6.1602,3.8281 0.28906,0.03125 0.66016,0.03906 0.89062,0.03906 h 3.7305 4.2617 2.1289 c 1.2617,0 2.6406,-0.32031 3.7812,-0.98047 1.1602,-0.64062 2.1406,-1.5898 2.8281,-2.7188 0.35156,-0.55859 0.60938,-1.1797 0.80859,-1.8086 0.08984,-0.32031 0.17188,-0.64063 0.21875,-0.96875 l 0.08984,-0.55859 c 0.17188,-1.0781 0.46875,-2.1484 0.92969,-3.1289 0.89062,-1.9883 2.3516,-3.6719 4.1406,-4.7812 l 1.7891,-1.0391 0.80078,-0.46094 c 0.23828,-0.12891 0.48047,-0.25 0.71875,-0.35938 0.98047,-0.44141 2.0117,-0.76172 3.0586,-0.87891 1.0508,-0.14062 2.1016,-0.10938 3.1211,0.07813 0.51172,0.08984 1.0117,0.23047 1.5,0.41016 l 0.91016,0.35937 c 0.57813,0.23047 1.1914,0.39063 1.8086,0.48047 2.4883,0.37891 5.0898,-0.46094 6.8984,-2.1992 0.44922,-0.44141 0.85938,-0.92187 1.1914,-1.4414 l 0.25,-0.39844 0.12891,-0.23047 0.26953,-0.46094 1.0586,-1.8516 2.1289,-3.6914 1.0586,-1.8516 0.26953,-0.46094 c 0.12891,-0.23828 0.30078,-0.53906 0.42188,-0.82812 0.25,-0.57812 0.44141,-1.1992 0.55078,-1.8203 0.28906,-1.6484 0.07813,-3.4883 -0.76172,-5.1289 -0.41016,-0.82031 -0.98047,-1.5781 -1.6602,-2.2305 l -0.78906,-0.67969 c -0.14844,-0.12891 -0.30078,-0.25 -0.44141,-0.39062 -1.1602,-1.0586 -2.0508,-2.3711 -2.7383,-3.6406 -1.3984,-2.5195 -1.9297,-4.9102 -3.7891,-5.2305 -0.98047,-0.12891 -1.6992,0.46875 -2.0508,1.7383 -0.35938,1.25 -0.28125,3.1289 0.39844,5.1406 0.69141,2.0117 2,4.1094 3.7383,5.7617 0.44141,0.41016 0.89062,0.80078 1.3594,1.1484 l 0.46094,0.35937 c 0.10156,0.08984 0.19141,0.19141 0.28125,0.28906 0.32812,0.42188 0.5,0.94141 0.51172,1.4219 0,0.37891 -0.07813,0.75 -0.26172,1.0781 -0.05078,0.10938 -0.28125,0.48828 -0.44141,0.76953 l -0.53125,0.89844 -2.1016,3.6016 -2.0586,3.5195 c -0.39844,0.64062 -1.1094,1.0703 -1.8711,1.1484 -0.37109,0.03906 -0.75,0 -1.1094,-0.12891 l -0.89844,-0.35156 c -0.37109,-0.14844 -0.76172,-0.26953 -1.1484,-0.39062 -1.5508,-0.48047 -3.1797,-0.66016 -4.7812,-0.64062 -1.6094,0.03906 -3.2109,0.33984 -4.7305,0.82812 -0.75,0.26953 -1.5,0.55859 -2.2109,0.92188 -0.35938,0.17188 -0.69922,0.37109 -1.0508,0.57031 l -0.87891,0.5 -0.87891,0.51172 c -0.35156,0.19922 -0.69922,0.39844 -1.0312,0.62891 -0.67969,0.44141 -1.3008,0.94922 -1.8984,1.4805 -1.1992,1.0703 -2.1992,2.3398 -3.0391,3.6992 -0.82812,1.3594 -1.4688,2.8281 -1.8906,4.3594 -0.21875,0.76172 -0.37109,1.5391 -0.48828,2.3281 l -0.05859,0.37109 c -0.01953,0.07813 -0.03906,0.16016 -0.05859,0.23047 -0.05078,0.14844 -0.12891,0.28906 -0.21094,0.42969 -0.37891,0.55078 -0.94922,0.87109 -1.6992,0.85938 h -4.1719 -4.1719 -1.0391 -0.51953 -0.23828 -0.14062 c -0.37109,-0.01953 -0.71875,-0.12891 -1.0508,-0.30859 -0.64844,-0.35156 -1.1211,-1.0117 -1.2383,-1.7383 l -0.17187,-1.0508 c -0.07813,-0.39062 -0.16016,-0.78125 -0.26172,-1.1719 -0.21094,-0.76953 -0.46094,-1.5391 -0.78125,-2.2695 -1.2383,-2.9609 -3.3516,-5.4883 -5.9102,-7.3281 -2.5117,-1.7812 -5.5312,-3.0898 -8.6914,-3.4297 -1.5781,-0.17969 -3.1914,-0.16016 -4.7695,0.12109 -0.78906,0.14062 -1.5703,0.30859 -2.3281,0.57031 -0.37891,0.10937 -0.75,0.26953 -1.1289,0.41016 l -0.37109,0.14062 c -0.08984,0.03906 -0.17969,0.05078 -0.26953,0.07813 -0.71875,0.16016 -1.5195,-0.03125 -2.1016,-0.48828 -0.14062,-0.12109 -0.28125,-0.25 -0.39062,-0.39844 -0.12891,-0.14844 -0.17969,-0.25 -0.39062,-0.60938 l -1.0391,-1.8008 -2.0898,-3.6094 -1.0391,-1.8008 -0.51953,-0.89844 c -0.10938,-0.17969 -0.10938,-0.21094 -0.16016,-0.30859 -0.039062,-0.07813 -0.070312,-0.17188 -0.10156,-0.25 -0.23047,-0.67969 -0.12891,-1.4805 0.28125,-2.0703 0.089843,-0.14844 0.21875,-0.28125 0.35156,-0.41016 l 0.73047,-0.58984 c 0.62109,-0.51172 1.1914,-1.0586 1.7305,-1.6484 2.1406,-2.3711 3.5898,-5.3398 4.1289,-8.4805 0.30859,-1.5391 0.26953,-3.2617 0.26953,-4.5312 0,-1.5898 -0.21094,-3.1797 -0.64062,-4.7109 -0.85938,-3.0586 -2.5898,-5.8906 -4.9805,-8.0312 -0.28906,-0.28125 -0.60938,-0.51953 -0.92188,-0.76953 l -0.28125,-0.23047 c -0.05859,-0.05859 -0.12891,-0.12109 -0.19141,-0.19141 -0.21875,-0.26953 -0.41016,-0.57812 -0.48828,-0.92969 -0.089844,-0.33984 -0.10156,-0.71094 -0.03125,-1.0508 0.03125,-0.17188 0.10156,-0.33984 0.16016,-0.5 l 0.14844,-0.26953 0.26172,-0.44922 4.1992,-7.1992 0.26172,-0.44922 0.12891,-0.21875 0.07031,-0.10937 0.03906,-0.05859 c 0.10156,-0.14844 0.21094,-0.28906 0.32812,-0.42188 0.23828,-0.26172 0.55859,-0.44141 0.89062,-0.55859 0.32812,-0.12891 0.69922,-0.16016 1.0508,-0.12891 0.17969,0.01172 0.35156,0.05859 0.51172,0.10938 l 0.89062,0.35156 c 3.0195,1.1484 6.3789,1.3516 9.5117,0.69141 1.5703,-0.32812 3.0898,-0.85937 4.5117,-1.5781 1.3594,-0.69141 2.7617,-1.5781 3.9609,-2.6211 2.4414,-2.0781 4.3281,-4.8711 5.3203,-7.9805 0.23828,-0.78125 0.44922,-1.5703 0.57031,-2.3789 0.03125,-0.17188 0.07813,-0.48047 0.08984,-0.5 0.01172,-0.078125 0.03125,-0.16016 0.05859,-0.23047 0.03906,-0.14844 0.10938,-0.28906 0.17969,-0.42969 0.30859,-0.53906 0.87109,-0.92187 1.4609,-1.0195 l 0.23047,-0.019531 h 0.30859 c 0,0 1.0391,0.011719 1.0391,0.011719 l 2.0781,0.03125 4.1719,0.058593 2.0781,0.03125 c 0.21875,0 0.26953,0.011719 0.32812,0.019532 0.07031,0 0.14063,0.03125 0.21094,0.03125 0.12891,0.039062 0.26953,0.070312 0.39062,0.14062 0.5,0.23047 0.87891,0.69922 0.98828,1.2109 0.01953,0.058594 0.03125,0.12891 0.03125,0.19922 l 0.05078,0.41016 c 0.05859,0.42188 0.10937,0.83984 0.19922,1.25 0.16016,0.82812 0.39844,1.6484 0.67969,2.4492 0.57812,1.6016 1.4219,3.0898 2.4414,4.4297 1.0312,1.3398 2.25,2.5195 3.6016,3.5195 0.33984,0.23828 0.69141,0.48047 1.0391,0.71094 l 0.98828,0.60156 1.8086,1.0898 c 2.9297,1.6797 6.3984,2.5391 9.8906,2.2891 1.7305,-0.12891 3.5117,-0.53906 5.0781,-1.1719 0.07031,-0.01953 0.19141,-0.07813 0.21094,-0.07813 h 0.05859 c 0,0 0.08984,-0.01953 0.12109,-0.03906 0.07813,0 0.16016,-0.01172 0.23828,0 0.16016,0.01953 0.32031,0.07031 0.44922,0.16016 0.12891,0.08984 0.23828,0.19141 0.30859,0.30859 l 0.71094,1.3203 1.9688,3.6719 c 0.62109,1.1406 1.2695,2.3398 1.9297,3.5781 l 0.12891,0.23047 c 0.03906,0.07031 0.01172,0.03906 0.01953,0.05859 0.01172,0.01953 0,0.03906 0.01953,0.05859 0,0.03906 0.01172,0.07031 0,0.10938 0,0.07031 -0.01953,0.14844 -0.03906,0.21875 -0.01953,0.07031 -0.05859,0.12109 -0.10156,0.17969 0,0 -0.01953,0.01172 -0.01953,0.01953 0,0 0.01172,0 -0.10938,0.10156 l -0.51953,0.42969 c -0.35156,0.28125 -0.66016,0.60938 -0.96875,0.91016 -1.2383,1.2617 -2.2109,2.6797 -2.8984,4.0898 -1.3906,2.8398 -1.6016,5.6016 -1.1602,7.4102 0.44922,1.8398 1.4414,2.7188 2.6719,2.6211 2.0781,-0.23047 2.7695,-3.3906 4.9688,-6.25 0.53906,-0.71875 1.1602,-1.4102 1.8594,-2.0508 l 0.53906,-0.46094 0.28906,-0.21094 0.41016,-0.32031 c 0.98047,-0.78125 1.8086,-1.7891 2.3594,-2.9414 1.1289,-2.2891 1.1211,-5.0781 0.05078,-7.3203 z"
       id="path2" />
  </g>
</svg>
