<?xml version="1.0" encoding="UTF-8" standalone="no"?>
<svg
   data-name="Layer 1"
   viewBox="0 0 100 125"
   x="0px"
   y="0px"
   version="1.1"
   id="svg3"
   sodipodi:docname="sleep.svg"
   inkscape:version="1.3.2 (091e20ef0f, 2023-11-25, custom)"
   xmlns:inkscape="http://www.inkscape.org/namespaces/inkscape"
   xmlns:sodipodi="http://sodipodi.sourceforge.net/DTD/sodipodi-0.dtd"
   xmlns="http://www.w3.org/2000/svg"
   xmlns:svg="http://www.w3.org/2000/svg">
  <defs
     id="defs3" />
  <sodipodi:namedview
     id="namedview3"
     pagecolor="#505050"
     bordercolor="#eeeeee"
     borderopacity="1"
     inkscape:showpageshadow="0"
     inkscape:pageopacity="0"
     inkscape:pagecheckerboard="0"
     inkscape:deskcolor="#505050"
     inkscape:zoom="1.888"
     inkscape:cx="50.052966"
     inkscape:cy="62.235169"
     inkscape:window-width="2516"
     inkscape:window-height="1512"
     inkscape:window-x="0"
     inkscape:window-y="0"
     inkscape:window-maximized="1"
     inkscape:current-layer="svg3" />
  <path
     d="m 0.72931986,66.941688 0.13098748,0.369805 0.10478938,0.250939 0.22267878,0.501879 0.8907149,1.994308 C 6.911928,80.67732 15.530906,89.4602 25.892016,94.663891 36.763978,100.13173 49.509062,101.42604 61.245542,98.414776 72.995119,95.469539 83.618206,88.152674 90.547443,78.141511 97.555273,68.196385 100.92165,55.675827 99.782061,43.538283 99.218815,37.462908 97.59457,31.49319 95.014117,25.972523 92.394367,20.465063 88.766013,15.45948 84.430326,11.219924 81.587898,8.4199688 77.776162,5.1445484 74.121611,3.3879728 70.46706,1.631396 67.257867,1.4068714 66.196868,3.5332529 c -0.589444,1.1754537 -0.353667,2.2452482 0.366765,3.2225909 0.366765,0.4886713 0.851419,0.9509291 1.440862,1.3999782 0.563246,0.4886714 1.205085,0.9773427 1.925517,1.4395992 2.842429,1.8886498 6.48388,4.1206908 8.841655,6.3923528 7.309102,7.065927 12.208036,16.62804 13.334528,26.771276 1.15269,10.103615 -0.982407,20.629863 -6.536277,29.175012 C 80.133938,80.492417 71.750738,87.188537 62.123157,90.30547 57.315916,91.863936 52.2467,92.524302 47.190583,92.405437 42.134465,92.233742 37.117645,91.203568 32.428292,89.314919 23.075786,85.497999 15.07245,78.339621 10.409295,69.305801 L 9.5316787,67.615262 C 9.2697031,67.034138 9.0339259,66.453016 8.7719525,65.871893 L 8.3920883,65.000209 C 8.2741997,64.722854 8.1039153,64.366256 8.077718,64.207768 7.9467312,63.824755 7.8681381,63.428535 7.8419408,63.019107 c -0.091693,-1.624501 0.7466281,-3.249004 2.1088976,-4.067859 1.3360726,-0.84527 3.1306006,-0.871685 4.4666746,-0.07925 l 0.838319,0.488672 c 0.31437,0.184902 0.641839,0.356598 0.969307,0.541501 0.654939,0.356598 1.309875,0.686782 1.99101,0.99055 1.349172,0.620745 2.750738,1.162246 4.178502,1.598088 2.868625,0.884892 5.894437,1.360356 8.907149,1.360356 1.493257,-0.06603 3.012712,-0.02641 4.492871,-0.290562 0.746628,-0.118868 1.493257,-0.184902 2.239887,-0.330182 l 2.200589,-0.528294 c 2.894825,-0.818855 5.750351,-1.928272 8.343903,-3.539567 1.349173,-0.713196 2.528058,-1.69054 3.772439,-2.562223 1.139592,-1.016966 2.357776,-1.94148 3.36638,-3.103726 4.29639,-4.371628 7.296003,-10.02437 8.776162,-16.086538 l 0.419161,-2.298078 0.19648,-1.162245 0.10479,-1.162246 0.183382,-2.350906 c 0.0131,-0.79244 0.0131,-1.584881 -0.0131,-2.377321 -0.130986,-3.169761 -0.73353,-6.339523 -1.729034,-9.350796 -0.458457,-1.399978 -1.047901,-2.852785 -1.742134,-4.279178 -0.170283,-0.356597 -0.353666,-0.713196 -0.537048,-1.056587 l -0.288173,-0.528289 c -0.0786,-0.14528 -0.05239,-0.132073 -0.09169,-0.19811 -0.07859,-0.184902 -0.144086,-0.383013 -0.183382,-0.581123 -0.157185,-0.818855 0.0131,-1.63771 0.445357,-2.443358 C 61.677801,8.8161883 62.411331,8.0369554 63.328243,7.2445151 64.218957,6.42566 65.397845,5.6332197 65.947993,4.0615465 66.39335,2.8332644 65.712216,1.3276282 63.56402,0.46915097 61.494418,-0.37611894 57.866065,-0.23083877 54.77476,2.1728969 c -1.519455,1.1622463 -2.855527,2.8395787 -3.680749,4.8338863 -0.83832,1.9811013 -1.126492,4.2659708 -0.83832,6.4715968 0.157185,1.109417 0.458456,2.192419 0.877616,3.209383 0.20958,0.515087 0.458456,1.003758 0.73353,1.479222 l 0.406061,0.726403 c 0.510851,0.937722 0.95621,1.862235 1.322975,2.760334 3.366377,8.003648 1.702837,17.750664 -3.785539,24.512822 -2.790034,3.328248 -6.379091,6.048961 -10.479,7.528183 -0.995504,0.435842 -2.069602,0.647159 -3.104403,0.950928 -0.52395,0.14528 -1.074098,0.184902 -1.598048,0.290562 -0.537048,0.07925 -1.074098,0.211317 -1.611146,0.211317 -2.187491,0.211317 -4.335686,0.132074 -6.457683,-0.290562 -2.121998,-0.409427 -4.204699,-1.122624 -6.195708,-2.113174 -0.497753,-0.250939 -0.995506,-0.515086 -1.480159,-0.79244 l -0.523951,-0.290562 c -0.235777,-0.118868 -0.471554,-0.264147 -0.73353,-0.369805 -0.497751,-0.224525 -1.008603,-0.422635 -1.519454,-0.59433 -2.082702,-0.64716 -4.322587,-0.752818 -6.4314862,-0.250939 -4.2570941,0.924513 -7.8592504,4.292385 -9.11673031,8.479111 -0.64183864,2.073552 -0.73352989,4.3188 -0.26197497,6.445182 0.13098748,0.528293 0.26197497,1.056587 0.45845625,1.558465 z"
     id="path1"
     style="stroke-width:1.3153" />
  <path
     d="m 29.366744,15.628106 -0.530499,0.574518 -1.060999,1.142435 c -1.421214,1.525448 -2.848977,3.044292 -4.28984,4.543325 l -4.532167,4.708416 -1.133042,1.175453 -0.563246,0.587727 -0.281624,0.297165 c -0.124437,0.132074 -0.30782,0.356598 -0.451906,0.541501 -0.595993,0.79244 -0.975857,1.822612 -1.008604,2.839577 -0.0393,1.016965 0.216129,2.020724 0.726981,2.872597 0.504302,0.858477 1.283677,1.578277 2.213688,2.014119 0.465006,0.217922 0.956209,0.356599 1.447412,0.429239 0.235777,0.02641 0.497753,0.04623 0.720431,0.05284 h 0.406061 c 0,0 3.25504,0 3.25504,0 l 6.503528,-0.01321 c 1.427765,0 3.543213,0.647159 3.634904,-1.782992 0.09824,-2.62826 -2.121998,-1.88865 -3.477718,-1.921667 -2.121997,-0.04622 -4.243995,-0.07265 -6.359443,-0.08585 l -3.182996,-0.01321 h -0.792474 c -0.137537,-0.01321 -0.268525,-0.01981 -0.386413,-0.05944 -0.235778,-0.06604 -0.438808,-0.204714 -0.609093,-0.396221 -0.340566,-0.396219 -0.432258,-1.003757 -0.20958,-1.432996 0.05895,-0.112265 0.124439,-0.217922 0.222679,-0.32358 0.0131,-0.01981 0.0524,-0.06603 0.10479,-0.118867 l 0.137537,-0.145281 0.275073,-0.290561 1.106844,-1.155642 4.427378,-4.609362 c 1.480158,-1.532051 2.973415,-3.050894 4.473223,-4.563135 l 2.266083,-2.251854 c 0.150636,-0.138677 0.478104,-0.482068 0.707332,-0.812252 0.235778,-0.34339 0.42571,-0.726403 0.563247,-1.13583 0.268524,-0.818855 0.281623,-1.710351 0.05895,-2.522602 -0.216129,-0.818855 -0.661486,-1.578278 -1.303325,-2.172607 -0.635289,-0.594331 -1.480159,-1.003759 -2.338127,-1.135832 -0.20303,-0.02641 -0.445358,-0.05283 -0.62219,-0.06603 l -0.399513,-0.01981 -0.792473,-0.04623 -1.591499,-0.105662 C 24.579157,10.081012 22.463709,9.8961096 20.34826,9.671585 18.37035,9.4602679 15.508274,9.2093285 15.567217,12.511163 c 0.0524,2.707505 2.763837,2.403736 4.591112,2.416943 2.076152,0.01321 4.152303,0 6.221906,-0.02641 l 3.110953,-0.05283 h 0.130988 c 0,0 0.06549,0.01981 0.09824,0.07263 0.0393,0.04622 0.0524,0.112265 0.05895,0.145281 0,0.03963 0.0065,0.06604 -0.03274,0.132073 0.05239,-0.03302 -0.222679,0.264147 -0.379865,0.429239 z"
     id="path2"
     style="stroke-width:0.657648" />
  <path
     d="m 43.894344,32.55442 -0.26525,0.287259 -0.530499,0.571217 c -0.710607,0.762724 -1.424489,1.522147 -2.14492,2.271663 l -2.266084,2.354208 -0.566521,0.587726 -0.281623,0.293865 -0.140811,0.148581 c -0.06222,0.06603 -0.153911,0.178299 -0.225954,0.270751 -0.297996,0.39622 -0.487928,0.911306 -0.504302,1.419789 -0.01965,0.508482 0.108066,1.010362 0.363491,1.436298 0.252151,0.429238 0.641838,0.789138 1.106844,1.00706 0.232502,0.108963 0.478104,0.178299 0.723706,0.214619 0.117889,0.01321 0.248877,0.02312 0.360215,0.02641 h 0.203031 c 0,0 1.627519,0 1.627519,0 l 3.251765,-0.0066 c 0.713882,0 1.771606,0.323579 1.817452,-0.891495 0.04912,-1.314131 -1.060999,-0.944325 -1.73886,-0.960834 -1.060998,-0.02311 -2.121997,-0.03632 -3.17972,-0.04292 l -1.591499,-0.0066 h -0.396237 c -0.06877,-0.0066 -0.134262,-0.0099 -0.193206,-0.02971 -0.117889,-0.03303 -0.219405,-0.10236 -0.304547,-0.198111 -0.170283,-0.19811 -0.216129,-0.501879 -0.104789,-0.716498 0.02948,-0.05613 0.06222,-0.108963 0.111339,-0.16179 0.0065,-0.0099 0.0262,-0.03302 0.05239,-0.05944 l 0.06877,-0.07265 0.137537,-0.14528 0.553422,-0.577821 2.213688,-2.304681 C 42.79077,36.50341 43.5374,35.743989 44.287303,34.987868 l 1.133042,-1.125927 c 0.07532,-0.06933 0.239052,-0.241033 0.353666,-0.406125 0.117889,-0.171695 0.212855,-0.363202 0.281623,-0.567916 0.134262,-0.409427 0.140812,-0.855176 0.02948,-1.261301 -0.108066,-0.409427 -0.330743,-0.789139 -0.651662,-1.086303 -0.317645,-0.297165 -0.740081,-0.501879 -1.169064,-0.567916 -0.101512,-0.01321 -0.222679,-0.02641 -0.311096,-0.03302 l -0.199756,-0.0099 -0.396237,-0.02312 -0.795749,-0.05282 c -1.060999,-0.07265 -2.118722,-0.165092 -3.176446,-0.277354 -0.988956,-0.105662 -2.419994,-0.231128 -2.390522,1.419789 0.0262,1.353753 1.381918,1.201868 2.295556,1.208471 1.038076,0.0066 2.076151,0 3.110952,-0.01321 l 1.555477,-0.02641 h 0.06549 c 0,0 0.03274,0.0099 0.04912,0.03632 0.01965,0.02311 0.0262,0.05613 0.02948,0.07265 0,0.01982 0.0033,0.03303 -0.01637,0.06603 0.0262,-0.01651 -0.111339,0.132074 -0.189931,0.21462 z"
     id="path2-3"
     style="stroke-width:0.328824" />
</svg>
