<?xml version="1.0" encoding="UTF-8" standalone="no"?>
<svg
   data-name="Layer 1"
   viewBox="0 0 100 125"
   x="0px"
   y="0px"
   version="1.1"
   id="svg3"
   sodipodi:docname="users.svg"
   inkscape:version="1.3.2 (091e20ef0f, 2023-11-25, custom)"
   xmlns:inkscape="http://www.inkscape.org/namespaces/inkscape"
   xmlns:sodipodi="http://sodipodi.sourceforge.net/DTD/sodipodi-0.dtd"
   xmlns="http://www.w3.org/2000/svg"
   xmlns:svg="http://www.w3.org/2000/svg">
  <defs
     id="defs3" />
  <sodipodi:namedview
     id="namedview3"
     pagecolor="#505050"
     bordercolor="#eeeeee"
     borderopacity="1"
     inkscape:showpageshadow="0"
     inkscape:pageopacity="0"
     inkscape:pagecheckerboard="0"
     inkscape:deskcolor="#505050"
     inkscape:zoom="1"
     inkscape:cx="50.5"
     inkscape:cy="62.5"
     inkscape:window-width="2516"
     inkscape:window-height="1512"
     inkscape:window-x="0"
     inkscape:window-y="0"
     inkscape:window-maximized="1"
     inkscape:current-layer="svg3" />
  <path
     d="M 14.513597,32.435491 H 12.99232 12.231874 11.809399 l -0.591457,0.02084 c -3.1750585,0.146929 -6.2537364,1.469652 -8.318194,3.569029 -2.0888049,2.088793 -3.15101459,4.923127 -2.84919293,7.673137 0.13283096,1.375005 0.60364256,2.718519 1.34008613,3.946917 0.7364742,1.207229 1.8109277,2.34098 2.9699218,3.15965 l 16.382862,11.87198 -6.012485,14.811104 -1.750365,4.314218 -0.881489,2.162272 -0.434647,1.081095 -0.217335,0.535433 -0.289635,0.818707 c -0.71211,2.309145 -0.458632,4.828485 0.688132,7.001341 1.146719,2.172855 3.187229,3.967732 5.662265,4.996605 1.352265,0.566872 2.90976,0.934222 4.539494,1.039102 1.629735,0.08405 3.343979,-0.104902 4.925826,-0.629745 0.784815,-0.241575 1.593615,-0.619147 2.221199,-0.955387 0.446843,-0.251835 0.89328,-0.49341 1.340092,-0.745238 0.88149,-0.493402 1.726417,-0.997027 2.499075,-1.490467 3.114899,-1.994498 5.167086,-3.967741 4.177206,-5.710396 -1.07448,-1.878945 -3.923676,-1.186065 -7.292,0.39876 -0.844935,0.39876 -1.714245,0.85014 -2.595765,1.33293 -0.434647,0.241575 -0.881489,0.493403 -1.327912,0.745231 l -0.664169,0.377917 c -0.156803,0.07343 -0.289635,0.168113 -0.458625,0.230985 -1.23123,0.598305 -2.76468,0.671775 -3.911504,0.304455 -1.134945,-0.346477 -2.11275,-1.070513 -2.704214,-1.963013 -0.603645,-0.90273 -0.797003,-1.99449 -0.591465,-3.002107 0.06053,-0.262418 0.132832,-0.472215 0.253485,-0.77667 l 0.458625,-1.10235 0.905467,-2.193675 1.810927,-4.398286 7.219768,-17.613771 c 0.362339,-0.881565 0.0723,-1.910434 -0.797003,-2.54016 L 11.954464,48.421787 10.010734,47.015379 9.0329597,46.312166 8.7916623,46.133798 8.6348524,46.007712 C 8.5263874,45.93425 8.4297049,45.85019 8.3452174,45.755883 7.5965602,45.062922 7.1139877,44.149948 7.0173045,43.194556 c -0.096677,-0.944807 0.1811729,-1.931252 0.7726326,-2.729103 0.5914603,-0.797861 1.5212801,-1.416992 2.5595419,-1.732074 0.53133,-0.157523 1.050443,-0.241577 1.641907,-0.230984 h 2.535201 5.070396 10.129122 c 0,0 20.258244,-0.02084 20.258244,-0.02084 l 20.258251,0.02084 10.129123,0.02084 5.070396,0.02084 h 2.535194 c 0.567487,0.01059 1.098832,0.09431 1.605795,0.251829 1.026089,0.315046 1.931549,0.934223 2.499074,1.721489 0.579667,0.79786 0.844942,1.763477 0.72429,2.687116 -0.09668,0.934223 -0.579668,1.816136 -1.327912,2.477265 -0.265658,0.251829 -1.038263,0.776674 -1.678125,1.238633 L 87.844533,48.31658 72.137752,59.432783 c -0.941625,0.671775 -1.364129,1.805549 -0.953805,2.876062 l 0.024,0.07343 5.37222,13.929373 2.655824,6.969931 1.315739,3.484965 c 0.54312,1.396177 0.66417,1.7529 0.603645,2.43528 -0.0845,1.270125 -1.062314,2.382622 -2.342234,2.82375 -0.627622,0.220395 -1.327912,0.283267 -1.979947,0.178372 -0.3258,-0.05265 -0.639802,-0.146932 -0.929437,-0.273015 -0.14502,-0.06285 -0.289643,-0.136342 -0.422475,-0.209797 l -0.760448,-0.451373 -13.932071,-8.30322 c -2.511254,-1.51164 -5.348271,-3.20172 -8.185295,-4.744418 l -0.08449,-0.05265 c -1.545225,-0.839887 -3.561292,-0.87132 -5.191529,0.05265 -6.941885,3.936338 -12.905876,8.282048 -10.382652,11.315648 1.810927,2.183438 7.159206,0.188963 12.917951,-2.718517 1.702477,0.944805 3.380602,1.857772 4.901481,2.718517 l 14.451199,8.019623 0.905467,0.504 0.470812,0.262418 c 0.253478,0.136342 0.50697,0.262425 0.760447,0.388507 1.038263,0.48282 2.14887,0.839895 3.296092,1.049693 2.293942,0.430538 4.720687,0.273008 6.929714,-0.44079 2.209431,-0.703215 4.140988,-1.963005 5.577755,-3.579615 1.436775,-1.61661 2.306122,-3.589846 2.511255,-5.615746 0.108465,-1.0077 0.04838,-2.036482 -0.18117,-3.0336 -0.108465,-0.504 -0.265665,-0.986797 -0.458625,-1.469655 l -0.374138,-0.91332 -1.448542,-3.505785 -2.909759,-7.011916 -4.744633,-11.410115 9.887764,-7.26376 6.181401,-4.545239 c 1.545224,-1.112583 2.933706,-2.718519 3.634034,-4.450593 0.736469,-1.742658 0.941628,-3.653092 0.555299,-5.479462 C 99.096495,37.37909 95.933221,34.177452 91.876742,33.01221 90.8746,32.718349 89.812285,32.529397 88.761843,32.476772 l -0.784815,-0.02084 h -0.50697 -1.013917 -4.044306 c 0,0 -16.201766,0.03144 -16.201766,0.03144 h -0.120652 c 0.688132,-0.587721 1.340092,-1.20723 1.931556,-1.868358 C 70.97862,27.333575 72.584415,23.176895 72.644977,19.03045 72.681127,14.695315 70.966853,10.328522 67.803661,6.9695185 64.652649,3.6000181 60.149681,1.2170497 55.235825,0.35630472 50.334351,-0.48358582 45.106703,0.16734371 40.700109,2.2459193 c -4.394518,2.0785591 -7.907915,5.4794628 -9.791082,9.4996827 -0.591457,1.312112 -1.485157,2.991525 -1.412422,4.471761 -0.024,0.72439 0.241298,1.385589 0.72429,1.847539 0.483,0.47222 1.23123,0.745236 2.342234,0.776675 2.414572,0.05262 3.271747,-0.713807 3.670147,-1.637428 0.217335,-0.461968 0.277845,-1.007701 0.422475,-1.532545 0.08449,-0.535438 0.241289,-1.060274 0.446834,-1.501055 1.303965,-2.676881 3.597907,-4.9966056 6.495088,-6.4030132 2.873242,-1.4275771 6.302136,-2.0153146 9.58595,-1.5639489 6.616123,0.7243906 12.229796,5.9308291 12.507476,11.7565131 0.265658,2.897228 -0.784822,5.804691 -2.692447,8.135088 -1.931556,2.340981 -4.841316,3.988992 -7.95581,4.67094 -3.126666,0.66118 -6.495095,0.315046 -9.223662,-0.913317 -2.740334,-1.249218 -4.877428,-3.317192 -5.903623,-5.668407 -0.49518,-1.112583 -0.784815,-2.414458 -1.581442,-3.432307 -0.193357,-0.262422 -0.434655,-0.504 -0.748657,-0.724389 -0.265665,-0.220392 -0.603645,-0.430539 -1.013917,-0.6089 -0.820973,-0.346476 -1.94373,-0.608898 -3.452834,-0.587719 -1.23123,0.02084 -2.11275,0.335883 -2.728567,0.913315 -0.301822,0.293861 -0.5553,0.640337 -0.72429,1.039106 -0.14502,0.398758 -0.229507,0.83989 -0.265665,1.322694 -0.120645,1.910434 0.88149,4.156768 1.90761,5.794106 1.026089,1.679415 2.366279,3.211961 3.899736,4.56606 H 17.581164 14.539007 Z"
     id="path1-3"
     style="stroke-width:0.0938105" />
</svg>
